<svg width="71" height="45" viewBox="0 0 71 45" fill="none" xmlns="http://www.w3.org/2000/svg">
<g clip-path="url(#clip0_22_18700)">
<path opacity="0.07" d="M65.0063 0.289062H6.18263C3.05762 0.289062 0.667908 2.67878 0.667908 5.80378V38.8921C0.667908 42.0171 3.24144 44.4068 6.18263 44.4068H65.0063C68.1313 44.4068 70.5211 42.0171 70.5211 38.8921V5.80378C70.5211 2.67878 67.9475 0.289062 65.0063 0.289062Z" fill="black"/>
<path d="M65.0059 2.12695C67.028 2.12695 68.6824 3.78137 68.6824 5.80343V38.8918C68.6824 40.9138 67.028 42.5682 65.0059 42.5682H6.18222C4.16015 42.5682 2.50574 40.9138 2.50574 38.8918V5.80343C2.50574 3.78137 4.16015 2.12695 6.18222 2.12695H65.0059Z" fill="white"/>
<path d="M28.2412 35.2158C35.3478 35.2158 41.1088 29.4548 41.1088 22.3482C41.1088 15.2415 35.3478 9.48047 28.2412 9.48047C21.1345 9.48047 15.3735 15.2415 15.3735 22.3482C15.3735 29.4548 21.1345 35.2158 28.2412 35.2158Z" fill="#EB001B"/>
<path d="M42.9461 35.2158C50.0527 35.2158 55.8137 29.4548 55.8137 22.3482C55.8137 15.2415 50.0527 9.48047 42.9461 9.48047C35.8394 9.48047 30.0784 15.2415 30.0784 22.3482C30.0784 29.4548 35.8394 35.2158 42.9461 35.2158Z" fill="#F79E1B"/>
<path d="M41.1078 22.3481C41.1078 17.9363 38.9019 14.076 35.5931 11.8701C32.2843 14.2598 30.0784 18.1201 30.0784 22.3481C30.0784 26.576 32.2843 30.6202 35.5931 32.8261C38.9019 30.6202 41.1078 26.7599 41.1078 22.3481Z" fill="#FF5F00"/>
</g>
<defs>
<clipPath id="clip0_22_18700">
<rect width="69.8531" height="44.1178" fill="white" transform="translate(0.667297 0.289062)"/>
</clipPath>
</defs>
</svg>
