<svg width="355" height="40" viewBox="0 0 355 40" fill="none" xmlns="http://www.w3.org/2000/svg">
<path d="M13.8494 24.7885C13.1962 24.7885 12.6082 24.6766 12.0856 24.4526C11.563 24.2193 11.1524 23.8926 10.8538 23.4727C10.5552 23.0527 10.4058 22.5628 10.4058 22.0029H12.1136C12.151 22.4228 12.3143 22.7681 12.6036 23.0387C12.9022 23.3094 13.3175 23.4447 13.8494 23.4447C14.4 23.4447 14.8293 23.314 15.1373 23.0527C15.4452 22.7821 15.5992 22.4368 15.5992 22.0169C15.5992 21.6902 15.5012 21.4243 15.3053 21.219C15.1186 21.0137 14.8806 20.855 14.5913 20.743C14.3114 20.631 13.9194 20.5097 13.4155 20.3791C12.7809 20.2111 12.2629 20.0431 11.8617 19.8751C11.4697 19.6978 11.1338 19.4272 10.8538 19.0632C10.5738 18.6993 10.4338 18.214 10.4338 17.6074C10.4338 17.0475 10.5738 16.5575 10.8538 16.1376C11.1338 15.7176 11.5257 15.3957 12.0296 15.1717C12.5336 14.9477 13.1168 14.8357 13.7794 14.8357C14.722 14.8357 15.4919 15.0737 16.0892 15.5496C16.6958 16.0162 17.0317 16.6602 17.097 17.4814H15.3333C15.3053 17.1268 15.1373 16.8235 14.8293 16.5715C14.5213 16.3195 14.1154 16.1936 13.6115 16.1936C13.1542 16.1936 12.7809 16.3102 12.4916 16.5435C12.2023 16.7768 12.0576 17.1128 12.0576 17.5514C12.0576 17.85 12.1463 18.0973 12.3236 18.2933C12.5103 18.48 12.7436 18.6293 13.0235 18.7413C13.3035 18.8532 13.6861 18.9746 14.1714 19.1052C14.8153 19.2825 15.3379 19.4598 15.7392 19.6372C16.1498 19.8145 16.4951 20.0898 16.7751 20.4631C17.0644 20.827 17.209 21.317 17.209 21.9329C17.209 22.4275 17.0737 22.8941 16.8031 23.3327C16.5418 23.7713 16.1545 24.126 15.6412 24.3966C15.1373 24.6579 14.54 24.7885 13.8494 24.7885ZM26.1612 20.645C26.1612 20.9343 26.1425 21.1956 26.1052 21.4289H20.2119C20.2586 22.0449 20.4872 22.5395 20.8978 22.9128C21.3084 23.2861 21.8124 23.4727 22.4096 23.4727C23.2682 23.4727 23.8748 23.1134 24.2294 22.3948H25.9512C25.7179 23.1041 25.2933 23.6873 24.6774 24.1446C24.0708 24.5926 23.3149 24.8165 22.4096 24.8165C21.6724 24.8165 21.0098 24.6532 20.4219 24.3266C19.8433 23.9906 19.386 23.524 19.05 22.9268C18.7234 22.3202 18.5601 21.6202 18.5601 20.827C18.5601 20.0338 18.7187 19.3385 19.036 18.7413C19.3627 18.1347 19.8153 17.6681 20.3939 17.3414C20.9818 17.0148 21.6537 16.8515 22.4096 16.8515C23.1375 16.8515 23.7861 17.0101 24.3554 17.3274C24.9247 17.6447 25.3679 18.0927 25.6852 18.6713C26.0025 19.2405 26.1612 19.8985 26.1612 20.645ZM24.4954 20.1411C24.4861 19.5532 24.2761 19.0819 23.8655 18.7273C23.4548 18.3726 22.9462 18.1953 22.3396 18.1953C21.789 18.1953 21.3178 18.3726 20.9258 18.7273C20.5339 19.0726 20.3005 19.5438 20.2259 20.1411H24.4954ZM27.1997 20.799C27.1997 20.0244 27.3583 19.3385 27.6756 18.7413C28.0023 18.144 28.4409 17.682 28.9915 17.3554C29.5514 17.0195 30.1673 16.8515 30.8393 16.8515C31.4459 16.8515 31.9731 16.9728 32.4211 17.2154C32.8783 17.4487 33.2423 17.7427 33.5129 18.0973V16.9775H35.1227V24.6906H33.5129V23.5427C33.2423 23.9066 32.8737 24.2099 32.4071 24.4526C31.9405 24.6952 31.4085 24.8165 30.8113 24.8165C30.1487 24.8165 29.5421 24.6486 28.9915 24.3126C28.4409 23.9673 28.0023 23.4914 27.6756 22.8848C27.3583 22.2688 27.1997 21.5736 27.1997 20.799ZM33.5129 20.827C33.5129 20.2951 33.401 19.8331 33.177 19.4412C32.9623 19.0492 32.6777 18.7506 32.3231 18.5453C31.9685 18.34 31.5858 18.2373 31.1752 18.2373C30.7646 18.2373 30.382 18.34 30.0274 18.5453C29.6727 18.7413 29.3834 19.0352 29.1595 19.4272C28.9448 19.8098 28.8375 20.2671 28.8375 20.799C28.8375 21.331 28.9448 21.7976 29.1595 22.1988C29.3834 22.6001 29.6727 22.9081 30.0274 23.1227C30.3913 23.328 30.7739 23.4307 31.1752 23.4307C31.5858 23.4307 31.9685 23.328 32.3231 23.1227C32.6777 22.9174 32.9623 22.6188 33.177 22.2268C33.401 21.8256 33.5129 21.3589 33.5129 20.827ZM38.8146 18.0973C39.0479 17.7054 39.3559 17.4021 39.7385 17.1874C40.1304 16.9635 40.5924 16.8515 41.1243 16.8515V18.5033H40.7184C40.0931 18.5033 39.6172 18.6619 39.2905 18.9792C38.9732 19.2965 38.8146 19.8471 38.8146 20.631V24.6906H37.2188V16.9775H38.8146V18.0973ZM42.0593 20.827C42.0593 20.0338 42.2179 19.3385 42.5352 18.7413C42.8618 18.1347 43.3098 17.6681 43.879 17.3414C44.4483 17.0148 45.1016 16.8515 45.8388 16.8515C46.772 16.8515 47.5419 17.0755 48.1485 17.5234C48.7645 17.962 49.1797 18.5919 49.3944 19.4132H47.6726C47.5326 19.0306 47.3086 18.7319 47.0007 18.5173C46.6927 18.3026 46.3054 18.1953 45.8388 18.1953C45.1855 18.1953 44.6629 18.4286 44.271 18.8952C43.8884 19.3525 43.6971 19.9964 43.6971 20.827C43.6971 21.6576 43.8884 22.3062 44.271 22.7728C44.6629 23.2394 45.1855 23.4727 45.8388 23.4727C46.7627 23.4727 47.374 23.0667 47.6726 22.2548H49.3944C49.1704 23.0387 48.7505 23.664 48.1345 24.1306C47.5186 24.5879 46.7534 24.8165 45.8388 24.8165C45.1016 24.8165 44.4483 24.6532 43.879 24.3266C43.3098 23.9906 42.8618 23.524 42.5352 22.9268C42.2179 22.3202 42.0593 21.6202 42.0593 20.827ZM54.9743 16.8515C55.5622 16.8515 56.0848 16.9775 56.5421 17.2294C57.0087 17.4814 57.3726 17.8547 57.6339 18.3493C57.9046 18.8439 58.0399 19.4412 58.0399 20.1411V24.6906H56.4581V20.3791C56.4581 19.6885 56.2854 19.1612 55.9401 18.7973C55.5948 18.424 55.1236 18.2373 54.5263 18.2373C53.929 18.2373 53.4531 18.424 53.0985 18.7973C52.7532 19.1612 52.5805 19.6885 52.5805 20.3791V24.6906H50.9847V14.3318H52.5805V17.8734C52.8512 17.5467 53.1918 17.2948 53.6024 17.1175C54.0224 16.9401 54.4796 16.8515 54.9743 16.8515Z" fill="#F9F9F9"/>
<circle cx="336.357" cy="20.1906" r="18.0143" fill="#9C5E29"/>
<path d="M340.756 24.589L344.419 28.252M327.935 19.0947C327.935 21.0376 328.707 22.9009 330.081 24.2748C331.455 25.6487 333.318 26.4205 335.261 26.4205C337.204 26.4205 339.068 25.6487 340.441 24.2748C341.815 22.9009 342.587 21.0376 342.587 19.0947C342.587 17.1517 341.815 15.2884 340.441 13.9145C339.068 12.5407 337.204 11.7688 335.261 11.7688C333.318 11.7688 331.455 12.5407 330.081 13.9145C328.707 15.2884 327.935 17.1517 327.935 19.0947Z" stroke="#F9F9F9" stroke-width="1.37359" stroke-linecap="round" stroke-linejoin="round"/>
</svg>
