<svg width="71" height="45" viewBox="0 0 71 45" fill="none" xmlns="http://www.w3.org/2000/svg">
<g clip-path="url(#clip0_22_18696)">
<path opacity="0.07" d="M64.7701 0.289062H5.94642C2.82141 0.289062 0.431702 2.67878 0.431702 5.80378V38.8921C0.431702 42.0171 3.00524 44.4068 5.94642 44.4068H64.7701C67.8951 44.4068 70.2849 42.0171 70.2849 38.8921V5.80378C70.2849 2.67878 67.7113 0.289062 64.7701 0.289062Z" fill="black"/>
<path d="M64.7703 2.12695C66.7923 2.12695 68.4467 3.78137 68.4467 5.80343V38.8918C68.4467 40.9138 66.7923 42.5682 64.7703 42.5682H5.94656C3.9245 42.5682 2.27008 40.9138 2.27008 38.8918V5.80343C2.27008 3.78137 3.9245 2.12695 5.94656 2.12695H64.7703Z" fill="white"/>
<path d="M52.4549 18.8554H51.9034C51.1681 20.6937 50.6167 21.6128 50.0652 24.3701H53.5578C53.0064 21.6128 53.0064 20.326 52.4549 18.8554ZM57.7858 29.701H54.6608C54.477 29.701 54.477 29.701 54.2931 29.5172L53.9255 27.8628L53.7417 27.4952H49.3299C49.1461 27.4952 48.9622 27.4952 48.9622 27.8628L48.4108 29.5172C48.4108 29.701 48.227 29.701 48.227 29.701H44.3666L44.7343 28.7819L50.0652 16.2819C50.0652 15.3628 50.6167 14.9951 51.5358 14.9951H54.2931C54.477 14.9951 54.6608 14.9951 54.6608 15.3628L57.2343 27.3113C57.4182 28.0466 57.602 28.5981 57.602 29.3334C57.7858 29.5172 57.7858 29.5172 57.7858 29.701ZM33.1534 29.1496L33.8887 25.8407C34.0725 25.8407 34.2563 26.0246 34.2563 26.0246C35.5431 26.576 36.8299 26.9437 38.1166 26.7599C38.4843 26.7599 39.0358 26.576 39.4034 26.3922C40.3225 26.0246 40.3225 25.1054 39.5872 24.3701C39.2196 24.0025 38.6681 23.8187 38.1166 23.451C37.3813 23.0834 36.646 22.7157 36.0946 22.1643C33.8887 20.326 34.624 17.7525 35.9107 16.4657C37.0137 15.7304 37.5652 14.9951 39.0358 14.9951C41.2416 14.9951 43.6314 14.9951 44.7343 15.3628H44.9181C44.7343 16.4657 44.5505 17.3848 44.1828 18.4878C43.2637 18.1201 42.3446 17.7525 41.4255 17.7525C40.874 17.7525 40.3225 17.7525 39.771 17.9363C39.4034 17.9363 39.2196 18.1201 39.0358 18.304C38.6681 18.6716 38.6681 19.2231 39.0358 19.5907L39.9549 20.326C40.6902 20.6937 41.4255 21.0613 41.9769 21.429C42.8961 21.9804 43.8152 22.8996 43.999 24.0025C44.3666 25.6569 43.8152 27.1275 42.3446 28.2305C41.4255 28.9657 41.0578 29.3334 39.771 29.3334C37.1975 29.3334 35.1754 29.5172 33.521 28.9657C33.3372 29.3334 33.3372 29.3334 33.1534 29.1496ZM26.7195 29.701C26.9034 28.4143 26.9034 28.4143 27.0872 27.8628C28.0063 23.8187 28.9254 19.5907 29.6607 15.5466C29.8445 15.1789 29.8445 14.9951 30.2122 14.9951H33.521C33.1534 17.201 32.7857 18.8554 32.2343 20.8775C31.6828 23.6348 31.1313 26.3922 30.396 29.1496C30.396 29.5172 30.2122 29.5172 29.8445 29.5172M9.6239 15.3628C9.6239 15.1789 9.99155 14.9951 10.1754 14.9951H16.4254C17.3445 14.9951 18.0798 15.5466 18.2636 16.4657L19.918 24.554C19.918 24.7378 19.918 24.7378 20.1019 24.9216C20.1019 24.7378 20.2857 24.7378 20.2857 24.7378L24.146 15.3628C23.9622 15.1789 24.146 14.9951 24.3298 14.9951H28.1901C28.1901 15.1789 28.1901 15.1789 28.0063 15.3628L22.3078 28.7819C22.1239 29.1496 22.1239 29.3334 21.9401 29.5172C21.7563 29.701 21.3886 29.5172 21.021 29.5172H18.2636C18.0798 29.5172 17.896 29.5172 17.896 29.1496L14.9548 17.7525C14.5872 17.3848 14.0357 16.8334 13.3004 16.6495C12.1974 16.0981 10.1754 15.7304 9.80773 15.7304L9.6239 15.3628Z" fill="#142688"/>
</g>
<defs>
<clipPath id="clip0_22_18696">
<rect width="69.8531" height="44.1178" fill="white" transform="translate(0.431763 0.289062)"/>
</clipPath>
</defs>
</svg>
